<?xml version="1.0" encoding="UTF-8" standalone="no"?>
<!-- Created with Inkscape (http://www.inkscape.org/) -->

<svg
   width="400"
   height="60"
   viewBox="0 0 105.83333 15.875"
   version="1.1"
   id="svg7113"
   inkscape:version="1.2.2 (b0a8486, 2022-12-01)"
   sodipodi:docname="logo_white.svg"
   xmlns:inkscape="http://www.inkscape.org/namespaces/inkscape"
   xmlns:sodipodi="http://sodipodi.sourceforge.net/DTD/sodipodi-0.dtd"
   xmlns="http://www.w3.org/2000/svg"
   xmlns:svg="http://www.w3.org/2000/svg">
  <sodipodi:namedview
     id="namedview7115"
     pagecolor="#ffffff"
     bordercolor="#000000"
     borderopacity="0.25"
     inkscape:showpageshadow="2"
     inkscape:pageopacity="0.0"
     inkscape:pagecheckerboard="0"
     inkscape:deskcolor="#d1d1d1"
     inkscape:document-units="mm"
     showgrid="false"
     inkscape:zoom="0.914906"
     inkscape:cx="-863.47668"
     inkscape:cy="239.36885"
     inkscape:window-width="3440"
     inkscape:window-height="1385"
     inkscape:window-x="0"
     inkscape:window-y="0"
     inkscape:window-maximized="1"
     inkscape:current-layer="g5599" />
  <defs
     id="defs7110" />
  <g
     inkscape:label="Layer 1"
     inkscape:groupmode="layer"
     id="layer1">
    <g
       id="g5599"
       transform="matrix(1.151605,0,0,1.151605,-59.989716,-150.65051)">
      <path
         id="path5572"
         style="font-size:18.1683px;line-height:1.25;font-family:'Kraton Font';-inkscape-font-specification:'Kraton Font';letter-spacing:4.49792px;fill:#ff6600;fill-opacity:1;stroke-width:0.454205"
         d="m 53.992641,131.29892 v 0.20929 c 1.04817,0 1.589754,0.48945 2.340942,1.31051 1.348585,1.44058 2.710534,2.86868 4.052983,4.31499 -0.626942,0.005 -1.715389,-0.13893 -3.161565,0.85627 -1.85655,1.27761 -2.927485,5.13612 -4.726843,5.13612 h -0.279569 v 0.22686 h 1.45004 c 2.934876,0 3.10495,-4.41339 6.109705,-5.53144 0.436738,-0.15722 1.216553,-0.38957 1.514649,-0.35687 -1.255074,-1.4522 -2.937315,-3.14192 -4.348068,-4.64593 -0.768658,-0.82106 0.226874,-1.31051 0.768429,-1.31051 v -0.20929 z m 7.301879,6.16706 v 4.36718 c 0,1.01324 -1.012872,1.29294 -1.554427,1.29294 v 0.22686 h 4.698938 v -0.22686 c -0.559024,0 -1.571997,-0.2797 -1.571997,-1.29294 v -2.63963 z"
         sodipodi:nodetypes="ccccssccscccccccsccccscc" />
      <path
         d="m 74.516586,134.8106 c 0,-2.84753 -3.703538,-3.73848 -5.852289,-3.73848 -2.148751,0 -2.707776,0.2271 -4.297502,0.2271 v 0.20964 c 2.226509,-0.0638 2.67733,-0.0905 4.579317,-0.002 1.901987,0.0887 3.8934,1.01508 3.8934,3.28612 0,2.18369 -2.428263,3.86076 -5.153508,2.27104 v 0.38433 c 0.174695,0.17469 0.593963,0.33192 1.030701,0.48914 3.004758,1.11805 3.172145,5.41555 6.107024,5.41555 H 76.2737 v -0.2271 h -0.279513 c -1.79936,0 -2.578181,-3.70354 -4.726932,-5.13604 1.746952,-0.43674 3.249331,-1.46744 3.249331,-3.17945 z"
         style="font-size:18.1683px;line-height:1.25;font-family:'Kraton Font';-inkscape-font-specification:'Kraton Font';letter-spacing:4.49792px;fill:#ff6600;fill-opacity:1;stroke-width:0.454205"
         id="path5574"
         sodipodi:nodetypes="szcczscccsccscss" />
      <path
         id="path5576"
         style="font-size:18.1683px;line-height:1.25;font-family:'Kraton Font';-inkscape-font-specification:'Kraton Font';letter-spacing:4.49792px;stroke-width:0.454205;fill:#ffffff"
         d="m 86.154431,131.03696 -4.367175,9.3462 c -1.240334,2.6379 -2.131668,2.74299 -2.673222,2.74299 l -0.01705,0.22686 h 3.441134 v -0.22686 c -0.541554,0 -1.484965,-0.0876 -0.279569,-2.74299 l 0.140043,-0.29662 0.192236,-0.40204 2.847371,-6.09679 2.393136,6.09679 0.157613,0.40204 0.681096,1.74666 c 0.384329,1.01324 -0.454351,1.29295 -1.013375,1.29295 v 0.22686 h 4.664314 v -0.22686 c -0.541554,0 -1.537101,-0.26224 -1.938899,-1.29295 z"
         sodipodi:nodetypes="ccccccccccccccccccc" />
      <path
         d="m 98.386286,133.57026 8.001034,10.04498 h 0.43674 v -10.13232 c 0,-1.71202 1.01323,-1.97406 1.57226,-1.97406 v -0.20963 h -3.56379 v 0.20963 c 0.54156,0 1.55479,0.26204 1.55479,1.97406 v 7.6167 l -8.001034,-10.06244 h -0.436738 v 10.13232 c 0,1.71202 -1.013232,1.95659 -1.572256,1.95659 v 0.2271 h 3.563781 v -0.2271 c -0.541557,0 -1.554787,-0.24457 -1.554787,-1.95659 z"
         style="font-size:18.1683px;line-height:1.25;font-family:'Kraton Font';-inkscape-font-specification:'Kraton Font';letter-spacing:4.49792px;stroke-width:0.454205;fill:#ffffff"
         id="path5578" />
      <path
         d="m 113.15625,144.38389 c 2.35838,-0.33192 3.23186,-1.81683 3.23186,-4.62942 v -6.9354 c 0,-1.01323 1.01323,-1.31021 1.55478,-1.31021 v -0.20963 h -4.6993 v 0.20963 c 0.55903,0 1.57226,0.29698 1.57226,1.31021 v 7.16251 c 0,1.72948 -0.27951,3.61619 -1.6596,4.17521 z"
         style="font-size:18.1683px;line-height:1.25;font-family:'Kraton Font';-inkscape-font-specification:'Kraton Font';letter-spacing:4.49792px;stroke-width:0.454205;fill:#ffffff"
         id="path5580" />
      <path
         d="m 129.27138,131.05465 c -3.93064,0 -6.65589,2.51561 -6.65589,6.27156 0,3.73848 2.72525,6.25409 6.65589,6.25409 2.42826,0 3.98305,-1.10058 4.9264,-2.60296 l 0.20964,-2.79512 h -0.22711 c -0.38433,3.37161 -2.63789,5.01375 -4.89146,4.99628 -3.24933,0 -4.99629,-2.88247 -4.99629,-5.85229 0,-2.77765 1.69455,-5.85229 4.82159,-5.85229 1.65961,-0.0175 3.38909,1.01323 4.4722,3.37162 h 0.2271 l -0.71625,-3.54631 h -0.2271 c 0.0175,0.19216 -0.0524,0.47167 -0.29698,0.47167 -0.52409,0 -1.44997,-0.71625 -3.30174,-0.71625 z"
         style="font-size:18.1683px;line-height:1.25;font-family:'Kraton Font';-inkscape-font-specification:'Kraton Font';letter-spacing:4.49792px;stroke-width:0.454205;fill:#ffffff"
         id="path5582" />
      <path
         d="m 142.31188,132.81907 c 0,-1.01323 1.01323,-1.31021 1.55479,-1.31021 v -0.20963 h -4.6993 v 0.20963 c 0.55902,0 1.57226,0.29698 1.57226,1.31021 v 9.01427 c 0,1.01324 -1.01324,1.29275 -1.57226,1.29275 v 0.2271 h 4.6993 v -0.2271 c -0.54156,0 -1.55479,-0.27951 -1.55479,-1.29275 z"
         style="font-size:18.1683px;line-height:1.25;font-family:'Kraton Font';-inkscape-font-specification:'Kraton Font';letter-spacing:4.49792px;stroke-width:0.454205;fill:#ffffff"
         id="path5584" />
    </g>
  </g>
</svg>
