<?xml version="1.0" encoding="UTF-8" standalone="no"?>
<svg
   width="1024"
   height="1014"
   viewBox="0 0 105.83333 15.875"
   version="1.1"
   id="svg8"
   sodipodi:docname="logo_mark.svg"
   inkscape:version="1.2.2 (b0a8486, 2022-12-01)"
   xmlns:inkscape="http://www.inkscape.org/namespaces/inkscape"
   xmlns:sodipodi="http://sodipodi.sourceforge.net/DTD/sodipodi-0.dtd"
   xmlns="http://www.w3.org/2000/svg"
   xmlns:svg="http://www.w3.org/2000/svg">
  <defs
     id="defs12" />
  <sodipodi:namedview
     id="namedview10"
     pagecolor="#ffffff"
     bordercolor="#000000"
     borderopacity="0.25"
     inkscape:showpageshadow="2"
     inkscape:pageopacity="0.0"
     inkscape:pagecheckerboard="0"
     inkscape:deskcolor="#d1d1d1"
     showgrid="false"
     inkscape:zoom="1.0128205"
     inkscape:cx="413.6962"
     inkscape:cy="506.50633"
     inkscape:window-width="3440"
     inkscape:window-height="1385"
     inkscape:window-x="0"
     inkscape:window-y="0"
     inkscape:window-maximized="1"
     inkscape:current-layer="svg8" />
  <g
     transform="matrix(3.7173857,0,0,3.7173857,-185.91103,-502.13458)"
     id="g6">
    <path
       style="fill:#ff6600;fill-opacity:1"
       d="m 53.992641,131.29892 v 0.20929 c 1.04817,0 1.589754,0.48945 2.340942,1.31051 1.348585,1.44058 2.710534,2.86868 4.052983,4.31499 -0.626942,0.005 -1.715389,-0.13893 -3.161565,0.85627 -1.85655,1.27761 -2.927485,5.13612 -4.726843,5.13612 h -0.279569 v 0.22686 h 1.45004 c 2.934876,0 3.10495,-4.41339 6.109705,-5.53144 0.436738,-0.15722 1.216553,-0.38957 1.514649,-0.35687 -1.255074,-1.4522 -2.937315,-3.14192 -4.348068,-4.64593 -0.768658,-0.82106 0.226874,-1.31051 0.768429,-1.31051 v -0.20929 z m 7.301879,6.16706 v 4.36718 c 0,1.01324 -1.012872,1.29294 -1.554427,1.29294 v 0.22686 h 4.698938 v -0.22686 c -0.559024,0 -1.571997,-0.2797 -1.571997,-1.29294 v -2.63963 z"
       id="path2" />
    <path
       style="fill:#ff6600;fill-opacity:1"
       d="m 74.516586,134.8106 c 0,-2.84753 -3.703538,-3.73848 -5.852289,-3.73848 -2.148751,0 -2.707776,0.2271 -4.297502,0.2271 v 0.20964 c 2.226509,-0.0638 2.67733,-0.0905 4.579317,-0.002 1.901987,0.0887 3.8934,1.01508 3.8934,3.28612 0,2.18369 -2.428263,3.86076 -5.153508,2.27104 v 0.38433 c 0.174695,0.17469 0.593963,0.33192 1.030701,0.48914 3.004758,1.11805 3.172145,5.41555 6.107024,5.41555 H 76.2737 v -0.2271 h -0.279513 c -1.79936,0 -2.578181,-3.70354 -4.726932,-5.13604 1.746952,-0.43674 3.249331,-1.46744 3.249331,-3.17945 z"
       id="path4" />
  </g>
</svg>
